Coordinates
version=1
nRows=43
nColumns=12
inDegrees=yes

Units are S.I. units (second, meters, Newtons, ...)
Angles are in degrees

endheader
time	SC_y	SC_z	SC_x	AC_y	AC_z	AC_x	GH_y	GH_z	GH_yy	EL_x	PS_y
       0.0              -52.11           25.3          15.61          40.53         -1.854          9.712         -167.7          83.17         -67.02          26.39          123.4
   0.04265               -52.1           25.3          15.61          40.53         -1.857          9.709         -167.6          83.16         -66.98           26.4          123.4
   0.08529               -52.1           25.3          15.62          40.53         -1.859          9.706         -167.6          83.16         -66.95           26.4          123.4
    0.1279              -52.09           25.3          15.62          40.53         -1.862          9.703         -167.5          83.15         -66.91          26.41          123.4
    0.1706              -52.09          25.31          15.63          40.54         -1.865          9.699         -167.5          83.15         -66.87          26.41          123.4
    0.2132              -52.08          25.31          15.63          40.54         -1.868          9.695         -167.4          83.14         -66.82          26.42          123.4
    0.2559              -52.07          25.31          15.64          40.54         -1.872          9.691         -167.4          83.13         -66.78          26.42          123.4
    0.2985              -52.07          25.31          15.65          40.55         -1.875          9.686         -167.3          83.12         -66.73          26.43          123.4
    0.3412              -52.06          25.32          15.65          40.55         -1.879          9.682         -167.2          83.12         -66.67          26.43          123.4
    0.3838              -52.05          25.32          15.66          40.56         -1.883          9.677         -167.2          83.11         -66.61          26.44          123.4
    0.4265              -52.05          25.32          15.67          40.56         -1.888          9.671         -167.1           83.1         -66.55          26.44          123.4
    0.4691              -52.04          25.32          15.68          40.57         -1.893          9.665         -167.0          83.09         -66.49          26.45          123.5
    0.5117              -52.03          25.33          15.69          40.57         -1.898          9.659         -166.9          83.08         -66.41          26.46          123.5
    0.5544              -52.02          25.33           15.7          40.58         -1.904          9.652         -166.8          83.07         -66.34          26.47          123.5
     0.597              -52.01          25.34          15.71          40.58          -1.91          9.645         -166.7          83.05         -66.25          26.48          123.5
    0.6397               -52.0          25.34          15.72          40.59         -1.916          9.637         -166.6          83.04         -66.16          26.49          123.5
    0.6823              -51.98          25.34          15.74           40.6         -1.923          9.628         -166.5          83.03         -66.06           26.5          123.5
     0.725              -51.97          25.35          15.75           40.6         -1.931          9.618         -166.4          83.01         -65.96          26.51          123.5
    0.7676              -51.96          25.35          15.77          40.61          -1.94          9.608         -166.2          82.99         -65.84          26.52          123.5
    0.8103              -51.94          25.36          15.79          40.62         -1.949          9.597         -166.1          82.97         -65.71          26.54          123.5
    0.8529              -51.92          25.37          15.81          40.63         -1.959          9.584         -165.9          82.95         -65.57          26.55          123.5
    0.8956               -51.9          25.37          15.83          40.64         -1.971           9.57         -165.7          82.93         -65.41          26.57          123.5
    0.9382              -51.88          25.38          15.85          40.66         -1.983          9.555         -165.5           82.9         -65.24          26.59          123.6
    0.9808              -51.86          25.39          15.88          40.67         -1.997          9.538         -165.3          82.87         -65.05          26.61          123.6
     1.023              -51.83           25.4          15.91          40.69         -2.012           9.52         -165.0          82.84         -64.84          26.63          123.6
     1.066               -51.8          25.41          15.94           40.7         -2.029          9.499         -164.8          82.81          -64.6          26.66          123.6
     1.109              -51.77          25.42          15.98          40.72         -2.048          9.475         -164.4          82.77         -64.34          26.68          123.6
     1.151              -51.73          25.44          16.02          40.74          -2.07          9.449         -164.1          82.72         -64.04          26.72          123.6
     1.194              -51.68          25.45          16.07          40.77         -2.094          9.419         -163.7          82.67         -63.71          26.75          123.7
     1.237              -51.64          25.47          16.12           40.8         -2.122          9.386         -163.2          82.62         -63.33          26.79          123.7
     1.279              -51.58          25.49          16.18          40.83         -2.154          9.347         -162.7          82.55         -62.89          26.84          123.7
     1.322              -51.52          25.51          16.25          40.87          -2.19          9.303         -162.1          82.47         -62.39          26.89          123.8
     1.365              -51.44          25.54          16.33          40.91         -2.232          9.252         -161.4          82.39         -61.81          26.96          123.8
     1.407              -51.36          25.57          16.42          40.96          -2.28          9.192         -160.6          82.29         -61.14          27.03          123.9
      1.45              -51.26          25.61          16.53          41.01         -2.337          9.123         -159.7          82.17         -60.36          27.11          123.9
     1.493              -51.14          25.65          16.66          41.08         -2.404          9.041         -158.6          82.03         -59.43          27.21          124.0
     1.535               -51.0           25.7          16.82          41.16         -2.484          8.944         -157.3          81.87         -58.34          27.33          124.1
     1.578              -50.83          25.76           17.0          41.26          -2.58          8.827         -155.7          81.67         -57.02          27.47          124.2
     1.621              -50.63          25.84          17.22          41.38         -2.695          8.686         -153.8          81.43         -55.43          27.65          124.3
     1.663              -50.39          25.93          17.49          41.52         -2.836          8.514         -151.4          81.14         -53.48          27.86          124.5
     1.706              -50.08          26.04          17.83           41.7         -3.011          8.302         -148.6          80.78         -51.08          28.11          124.6
     1.748               -49.7          26.18          18.24          41.92         -3.228          8.037         -145.0          80.33         -48.08          28.44          124.9
     1.791              -49.22          26.36          18.77          42.19         -3.502          7.703         -140.5          79.77         -44.31          28.84          125.2
